<svg width="200" height="44" viewBox="0 0 200 44" fill="none" xmlns="http://www.w3.org/2000/svg">
<path d="M72.7169 6.62389L171.42 11.5064L170.063 39.1171L163.807 43.7025L71.1095 39.1171L72.7169 6.62389Z" fill="#FEDB31"/>
<path d="M170.063 39.0994L163.807 43.6994L164.359 37.9955L170.063 39.0994Z" fill="#FAB42D"/>
<path d="M157.013 20.826C157.903 20.8958 158.654 21.0829 159.263 21.3891L159.262 21.3891C159.98 21.7185 160.542 22.2139 160.947 22.8752L161.1 23.1304C161.442 23.7422 161.68 24.4711 161.815 25.3153C161.968 26.2788 162.019 27.417 161.967 28.7292L161.628 37.3846L157.24 37.2127L157.574 28.6841C157.627 27.3355 157.507 26.3508 157.222 25.7207L157.222 25.7198C156.946 25.0863 156.356 24.7437 155.423 24.7071C154.588 24.6744 153.756 24.7883 152.929 25.0491L152.927 25.0491L152.592 25.1464L152.127 37.0123L147.738 36.8403L148.365 20.8604L152.72 21.031L152.719 21.1014L152.687 22.6619C152.759 22.5846 152.829 22.5114 152.895 22.4374C153 22.3203 153.1 22.206 153.202 22.0976C153.406 21.8802 153.617 21.681 153.888 21.5069C154.431 21.1583 155.202 20.9164 156.614 20.8035L156.623 20.8029L157.013 20.826Z" fill="#020203" stroke="#020203" stroke-width="0.144148"/>
<path d="M139.323 20.1248C141.953 20.2279 143.819 21.0344 144.899 22.5599C145.974 24.0572 146.456 26.1242 146.353 28.7515C146.243 31.5368 145.553 33.6159 144.267 34.9744C142.98 36.3346 141.109 36.9606 138.667 36.8649C136.225 36.7692 134.409 35.9986 133.232 34.5419C132.057 33.087 131.53 30.9604 131.639 28.1748C131.689 26.9034 131.862 25.7622 132.157 24.752C132.452 23.74 132.903 22.8814 133.508 22.177C134.04 21.5595 134.704 21.0786 135.501 20.7354L135.851 20.5967C136.808 20.2278 137.966 20.0717 139.323 20.1248ZM139.176 23.8798C138.051 23.8357 137.285 24.1696 136.852 24.8628L136.852 24.8637C136.413 25.548 136.155 26.7053 136.091 28.3493C136.07 28.8964 136.069 29.4553 136.089 30.0253L136.088 30.0253C136.129 30.5695 136.235 31.0736 136.404 31.5378C136.593 31.9782 136.868 32.3485 137.227 32.651L137.226 32.651C137.601 32.9281 138.127 33.084 138.814 33.111C139.868 33.1523 140.607 32.8613 141.052 32.2536L141.137 32.128C141.579 31.4005 141.837 30.2204 141.901 28.577C141.965 26.9329 141.799 25.7591 141.415 25.0426L141.415 25.0416C141.038 24.3166 140.3 23.9238 139.176 23.8798Z" fill="#020203" stroke="#020203" stroke-width="0.144148"/>
<path d="M130.264 20.1509L129.638 36.1309L125.25 35.9589L125.876 19.979L130.264 20.1509ZM130.513 14.9692L130.509 15.0424L130.341 18.1964L130.337 18.2676L125.949 18.0956L125.953 18.0225L126.121 14.8684L126.125 14.7972L130.513 14.9692Z" fill="#020203" stroke="#020203" stroke-width="0.144148"/>
<path d="M120.8 15.3703L120.628 19.7732L124.523 19.9259L124.376 23.6808L120.48 23.5281L120.197 30.7648L120.217 31.049L120.24 31.2698C120.269 31.5312 120.37 31.7545 120.542 31.9403C120.705 32.1173 120.985 32.2204 121.398 32.2368L123.807 32.2686L123.877 32.2694L123.878 32.3398L123.936 35.7363L123.936 35.7969L123.876 35.8082C122.448 36.0697 121.358 36.1875 120.611 36.1582C119.657 36.1208 118.862 35.9824 118.228 35.7432L118.228 35.7442C117.59 35.5252 117.083 35.1701 116.712 34.6782C116.341 34.1875 116.087 33.5523 115.947 32.7776L115.947 32.7757C115.829 31.9828 115.792 31.0145 115.837 29.8717L116.092 23.3562L114.224 23.2829L114.371 19.528L116.239 19.6012L116.412 15.1984L120.8 15.3703Z" fill="#020203" stroke="#020203" stroke-width="0.144148"/>
<path d="M107.181 18.8651C109.236 18.9457 110.71 19.4276 111.583 20.3267C112.456 21.2261 112.848 22.6183 112.775 24.486L112.517 31.0678L112.542 31.4177C112.576 31.7369 112.635 31.9698 112.717 32.1204L112.762 32.1828C112.882 32.3251 113.106 32.4438 113.449 32.5303L113.508 32.5453L113.503 32.6057L113.251 35.8004L113.245 35.8686L113.177 35.8659C112.098 35.8236 111.229 35.7154 110.573 35.54L110.572 35.54C109.945 35.3675 109.315 35.0497 108.684 34.5893C107.117 35.2604 105.553 35.5671 103.992 35.5059C102.343 35.4413 101.111 34.9568 100.309 34.0393C99.5081 33.1225 99.1483 31.7866 99.2165 30.0452C99.2831 28.3447 99.7886 27.1423 100.75 26.4628C101.23 26.1131 101.876 25.894 102.633 25.7548C103.392 25.6154 104.268 25.555 105.211 25.5285L105.215 25.5286L108.316 25.612L108.386 24.314L108.389 24.0815C108.377 23.5639 108.249 23.2183 108.021 23.0242L108.018 23.0222L108.018 23.0212C107.751 22.7742 107.303 22.6308 106.656 22.6053L100.694 22.7117L100.621 22.7127L100.621 22.6394L100.609 19.6025L100.609 19.5448L100.665 19.5323C102.975 19.0083 105.147 18.7854 107.181 18.8651ZM105.416 28.4567C104.834 28.4858 104.403 28.6495 104.111 28.9382C103.82 29.2266 103.659 29.6499 103.637 30.2184C103.615 30.7894 103.725 31.2093 103.956 31.4907C104.187 31.7705 104.547 31.9263 105.051 31.946C105.846 31.9772 106.721 31.8857 107.676 31.6707L108.102 31.574L108.229 28.3197L105.416 28.4567Z" fill="#020203" stroke="#020203" stroke-width="0.144148"/>
<path d="M88.4292 12.7887L88.4428 12.841L92.8194 30.2914L93.4971 13L98.0122 13.1769L97.1624 34.8576L97.0902 34.8557L89.5554 34.5731L89.5017 34.572L89.4882 34.5196L84.9466 17.138L84.2719 34.3533L79.7568 34.1764L80.6066 12.4948L80.6788 12.4976L88.3755 12.7866L88.4292 12.7887Z" fill="#020203" stroke="#020203" stroke-width="0.144148"/>
<rect y="3.98933" width="74.1646" height="33.2844" transform="rotate(-3.08342 0 3.98933)" fill="#F94B4F"/>
<path d="M61.0287 7.94281L61.2338 12.3443L65.128 12.1628L65.3029 15.9166L61.4087 16.098L61.7457 23.3324L61.7901 23.6138L61.8316 23.8318C61.8836 24.0898 62.0029 24.3036 62.19 24.4741C62.3682 24.6364 62.6556 24.7151 63.0684 24.6961L65.4711 24.5216L65.5413 24.5164L65.5485 24.5864L65.8965 27.9655L65.9023 28.0258L65.8434 28.0423C64.4427 28.4251 63.3671 28.6357 62.6201 28.6705C61.6666 28.7149 60.8628 28.6451 60.2103 28.4611L60.2104 28.4621C59.5559 28.2986 59.0207 27.9881 58.6086 27.5298C58.1976 27.0726 57.89 26.4615 57.6836 25.7017L57.6835 25.6998C57.498 24.9199 57.3785 23.9583 57.3253 22.8159L57.0218 16.3024L55.1537 16.3895L54.9788 12.6357L56.8469 12.5487L56.6418 8.14721L61.0287 7.94281Z" fill="#020203" stroke="#020203" stroke-width="0.144148"/>
<path d="M47.8889 12.6166C48.505 12.5879 49.2391 12.607 50.0903 12.6734L50.0893 12.6734C50.9612 12.7177 51.9411 12.8202 53.0287 12.9813L53.0277 12.9813L54.0813 13.1229L54.1423 13.1308L54.1442 13.1923L54.2445 16.71L54.2463 16.7901L54.1668 16.783C52.8297 16.6762 51.7058 16.6019 50.7953 16.5598C49.9058 16.5168 49.199 16.5081 48.6746 16.5325C48.1486 16.557 47.7202 16.6004 47.3892 16.6628C47.0566 16.7255 46.8303 16.8059 46.7002 16.8983L46.6983 16.8993C46.4137 17.0886 46.2792 17.3667 46.2968 17.7451C46.3055 17.932 46.3612 18.0856 46.4621 18.2096C46.5638 18.3342 46.715 18.4345 46.9208 18.5059C47.1302 18.5786 47.4886 18.6659 47.9986 18.7686L47.9996 18.7685C48.5312 18.8493 49.2329 18.9433 50.1049 19.0507L50.1049 19.0517C50.959 19.1605 51.6916 19.3277 52.3007 19.5555L52.5244 19.637C53.0357 19.836 53.4696 20.0973 53.825 20.4211C54.2319 20.7918 54.5341 21.2539 54.7322 21.8051C54.9297 22.3547 55.0461 23.023 55.0827 23.8086C55.1631 25.5339 54.6882 26.8646 53.6471 27.7869C52.6087 28.7068 51.0178 29.2106 48.8886 29.3098C47.5107 29.374 45.8087 29.2616 43.7835 28.9748L43.7836 28.9758L42.7612 28.8328L42.7001 28.8239L42.6992 28.7624L42.6608 25.2095L42.6601 25.1313L42.7386 25.1375C44.0757 25.2443 45.1894 25.3191 46.0788 25.3621L46.0778 25.3622C46.9885 25.4043 47.7064 25.4134 48.2308 25.389C48.7456 25.365 49.1729 25.318 49.5138 25.25C49.8559 25.1817 50.1057 25.0925 50.269 24.986L50.2718 24.9839C50.4376 24.8861 50.557 24.7675 50.6326 24.6289C50.708 24.4904 50.7427 24.3276 50.7339 24.1383C50.7251 23.9496 50.6725 23.7911 50.5797 23.6606C50.4872 23.5306 50.3515 23.4233 50.1679 23.3415C49.9812 23.2688 49.6346 23.1864 49.123 23.094C48.6126 23.0018 47.9422 22.901 47.1126 22.7917L47.1126 22.7907C46.2813 22.7021 45.5518 22.5672 44.9252 22.3833L44.9232 22.3824C44.2937 22.1766 43.765 21.9007 43.339 21.5539L43.338 21.5529C42.9106 21.1842 42.576 20.7244 42.3353 20.1762L42.3342 20.1734C42.1141 19.6028 41.9851 18.8918 41.9456 18.0427C41.9059 17.19 42.0208 16.4336 42.2916 15.7751L42.2915 15.7731C42.5826 15.1161 42.9871 14.5605 43.5033 14.1065L43.5043 14.1055C44.041 13.6514 44.6779 13.3006 45.4144 13.0526L45.4153 13.0515C46.1721 12.8029 46.9969 12.6582 47.8889 12.6166Z" fill="#020203" stroke="#020203" stroke-width="0.144148"/>
<path d="M30.5398 13.774L30.9326 22.2053C30.969 22.985 31.0208 23.6361 31.0872 24.1592L31.0863 24.1592C31.1721 24.6553 31.2951 25.0517 31.4517 25.3515L31.5203 25.4588C31.6843 25.6972 31.8811 25.8616 32.1104 25.9553L32.3665 26.0382C32.6532 26.1208 33.0206 26.1959 33.3614 26.2206C34.3553 26.2926 34.9907 26.3485 35.8478 26.1008L36.2045 25.9718L35.6548 13.608L35.6524 13.5358L40.0383 13.3314L40.7826 29.3063L36.428 29.5092L36.3889 28.6712C34.9656 29.5475 33.6889 30.0181 32.5593 30.0707C31.4561 30.1221 30.5315 30.0163 29.7884 29.7501C29.0439 29.4833 28.4403 29.0371 27.98 28.4119C27.5208 27.7881 27.1843 26.9786 26.9677 25.9877C26.7505 24.9773 26.6089 23.763 26.5428 22.3463L26.153 13.9784L30.5398 13.774Z" fill="#020203" stroke="#020203" stroke-width="0.144148"/>
<path d="M16.4892 8.71706C19.0319 8.59862 20.9797 9.10296 22.3204 10.2422C23.662 11.3823 24.3825 13.1475 24.4933 15.5238C24.6244 18.3362 22.9632 20.8431 20.9254 22.288L25.7483 29.9312L25.8148 30.0366L25.6899 30.0424L20.2217 30.2649L20.1719 30.2672L20.1522 30.2222L17.046 23.1648L13.245 23.3546L13.5814 30.5743L9.06776 30.7846L8.05787 9.10989L16.4892 8.71706ZM13.0643 19.475L17.0453 19.2895C18.064 19.242 18.7959 18.8959 19.2567 18.2617C19.7218 17.6214 19.9342 16.7932 19.8866 15.7707C19.839 14.7494 19.5308 13.9569 18.9689 13.386L18.9679 13.3851C18.4297 12.8168 17.6676 12.5512 16.67 12.5976L12.7523 12.7801L13.0643 19.475Z" fill="#020203" stroke="#020203" stroke-width="0.144148"/>
<rect x="163.809" y="3.42898" width="33.3635" height="19.8198" transform="rotate(-5.41227 163.809 3.42898)" fill="#00BB74"/>
<path d="M185.003 4.8215L185.609 10.6661L187.268 10.3085L188.862 4.46723L188.875 4.41976L192.105 4.08454L192.073 4.18902L189.878 11.1334L193.526 17.4331L193.581 17.5294L190.311 17.8687L190.288 17.8269L187.531 12.8004L185.868 13.1576L186.399 18.2747L183.554 18.5699L182.158 5.11671L185.003 4.8215Z" fill="#020203" stroke="#020203" stroke-width="0.144148"/>
<path d="M172.862 6.08124L173.789 15.0196C173.869 15.7846 174.121 16.3254 174.536 16.6564C174.95 16.9875 175.541 17.1195 176.32 17.0387C177.098 16.9579 177.65 16.7075 177.988 16.2982C178.326 15.8891 178.461 15.3081 178.382 14.5431L177.454 5.60472L180.3 5.30951L181.221 14.1896C181.393 15.8442 181.099 17.1118 180.324 17.9762C179.55 18.8384 178.297 19.3529 176.579 19.5312C174.86 19.7095 173.528 19.4633 172.594 18.7783C171.657 18.0915 171.11 16.9112 170.938 15.2565L170.017 6.37645L172.862 6.08124Z" fill="#020203" stroke="#020203" stroke-width="0.144148"/>
</svg>
