<svg width="5305" height="1431" viewBox="0 0 5305 1431" fill="none" xmlns="http://www.w3.org/2000/svg">
<path d="M5018.23 1430.14H0.917969L89.5784 982.788H5106.38L5018.23 1430.14Z" fill="white"/>
<path d="M370.973 1342.59C344.682 1342.59 322.184 1336.78 303.224 1325.4C284.265 1314.03 269.602 1298.1 259.491 1277.63C249.126 1257.15 244.07 1233.39 244.07 1206.09C244.07 1178.78 249.126 1155.02 259.491 1134.55C269.855 1114.07 284.265 1098.14 303.224 1086.77C322.184 1075.39 344.682 1069.58 370.973 1069.58C401.055 1069.58 426.335 1076.91 446.811 1092.08C467.287 1106.99 481.696 1127.21 490.039 1152.75L440.238 1166.65C435.435 1150.72 427.093 1138.34 415.717 1129.74C404.089 1120.89 389.427 1116.6 371.226 1116.6C354.541 1116.6 340.637 1120.39 329.767 1127.72C318.644 1135.05 310.302 1145.67 304.741 1159.07C299.179 1172.46 296.399 1188.39 296.399 1206.59C296.399 1224.79 299.179 1240.72 304.741 1254.12C310.302 1267.51 318.644 1278.13 329.767 1285.46C340.89 1292.79 354.794 1296.59 371.226 1296.59C389.427 1296.59 404.342 1292.29 415.717 1283.19C427.346 1274.34 435.435 1261.95 440.238 1246.28L490.039 1260.18C481.696 1285.72 467.287 1305.94 446.811 1320.85C426.335 1335.77 401.055 1343.35 370.973 1343.35V1342.59Z" fill="black"/>
<path d="M847.637 1342.97C821.346 1342.97 798.848 1337.16 779.888 1325.78C760.929 1314.41 746.267 1298.48 736.155 1278.01C725.79 1257.53 720.734 1233.77 720.734 1206.46C720.734 1179.16 725.79 1155.4 736.155 1134.92C746.519 1114.45 760.929 1098.52 779.888 1087.15C798.848 1075.77 821.346 1069.96 847.637 1069.96C873.927 1069.96 896.426 1075.77 915.386 1087.15C934.345 1098.52 949.007 1114.45 959.119 1134.92C969.483 1155.4 974.539 1179.16 974.539 1206.46C974.539 1233.77 969.483 1257.53 959.119 1278.01C948.754 1298.48 934.345 1314.41 915.386 1325.78C896.426 1337.16 873.927 1342.97 847.637 1342.97ZM847.637 1296.46C864.321 1296.46 877.972 1293.17 889.095 1285.84C900.218 1278.51 908.307 1267.89 913.869 1254.24C919.43 1240.59 922.211 1224.67 922.211 1206.46C922.211 1188.26 919.43 1172.59 913.869 1159.19C908.307 1145.79 899.965 1135.43 889.095 1128.1C877.972 1120.77 864.321 1116.98 847.637 1116.72C830.952 1116.47 817.302 1120.01 806.179 1127.34C795.056 1134.67 786.966 1145.29 781.405 1158.69C775.843 1172.34 773.063 1188.26 773.063 1206.46C773.063 1224.67 775.843 1240.34 781.405 1253.74C786.966 1267.14 795.309 1277.5 806.179 1284.83C817.049 1292.16 830.952 1295.95 847.637 1296.21V1296.46Z" fill="black"/>
<path d="M1221.03 1337.41V1075.52H1271.34L1385.09 1250.2V1075.52H1435.4V1337.41H1385.09L1271.34 1162.73V1337.41H1221.03Z" fill="black"/>
<path d="M1728.92 1337.29V1075.39H1888.94V1124.94H1778.21V1181.82H1866.94V1231.37H1778.21V1337.54H1728.66L1728.92 1337.29Z" fill="black"/>
<path d="M2203.93 1337.29V1075.39H2374.82V1121.65H2253.23V1177.77H2352.83V1224.03H2253.23V1291.28H2374.82V1337.54H2203.93V1337.29Z" fill="black"/>
<path d="M2667.96 1337.29V1075.39H2778.68C2781.21 1075.39 2784.75 1075.39 2789.05 1075.64C2793.34 1075.64 2797.13 1076.15 2800.67 1076.91C2816.35 1079.44 2829.24 1084.49 2839.1 1092.33C2849.21 1100.17 2856.54 1110.02 2861.09 1122.16C2865.89 1134.04 2868.17 1147.44 2868.17 1162.1C2868.17 1184.09 2862.61 1202.8 2851.74 1218.47C2840.87 1234.15 2823.68 1243.75 2800.42 1247.29L2778.68 1248.81H2717.5V1337.54H2667.96V1337.29ZM2717.25 1202.29H2776.15C2778.68 1202.29 2781.46 1202.29 2784.49 1202.04C2787.53 1201.79 2790.31 1201.28 2792.84 1200.52C2799.41 1198.75 2804.72 1195.72 2808.26 1191.42C2811.8 1187.13 2814.32 1182.32 2815.84 1177.01C2817.36 1171.71 2817.86 1166.65 2817.86 1162.1C2817.86 1157.55 2817.11 1152.24 2815.84 1147.19C2814.58 1141.88 2812.05 1137.07 2808.26 1132.78C2804.72 1128.48 2799.41 1125.44 2792.84 1123.68C2790.31 1122.92 2787.53 1122.41 2784.49 1122.16C2781.46 1122.16 2778.68 1121.91 2776.15 1121.91H2717.25V1202.55V1202.29ZM2815.59 1337.29L2764.02 1230.61L2815.08 1220.75L2871.96 1337.29H2815.84H2815.59Z" fill="black"/>
<path d="M3165.1 1337.29V1075.39H3335.99V1121.65H3214.39V1177.77H3313.99V1224.03H3214.39V1291.28H3335.99V1337.54H3165.1V1337.29Z" fill="black"/>
<path d="M3623.94 1337.41V1075.52H3674.24L3788 1250.2V1075.52H3838.31V1337.41H3788L3674.24 1162.73V1337.41H3623.94Z" fill="black"/>
<path d="M4215.62 1342.59C4189.33 1342.59 4166.83 1336.78 4147.87 1325.4C4128.91 1314.03 4114.25 1298.1 4104.14 1277.63C4093.77 1257.15 4088.71 1233.39 4088.71 1206.09C4088.71 1178.78 4093.77 1155.02 4104.14 1134.55C4114.5 1114.07 4128.91 1098.14 4147.87 1086.77C4166.83 1075.39 4189.33 1069.58 4215.62 1069.58C4245.7 1069.58 4270.98 1076.91 4291.46 1092.08C4311.93 1106.99 4326.34 1127.21 4334.68 1152.75L4284.88 1166.65C4280.08 1150.72 4271.74 1138.34 4260.36 1129.74C4248.73 1120.89 4234.07 1116.6 4215.87 1116.6C4199.19 1116.6 4185.28 1120.39 4174.41 1127.72C4163.29 1135.05 4154.95 1145.67 4149.39 1159.07C4143.82 1172.46 4141.04 1188.39 4141.04 1206.59C4141.04 1224.79 4143.82 1240.72 4149.39 1254.12C4154.95 1267.51 4163.29 1278.13 4174.41 1285.46C4185.54 1292.79 4199.44 1296.59 4215.87 1296.59C4234.07 1296.59 4248.99 1292.29 4260.36 1283.19C4271.99 1274.34 4280.08 1261.95 4284.88 1246.28L4334.68 1260.18C4326.34 1285.72 4311.93 1305.94 4291.46 1320.85C4270.98 1335.77 4245.7 1343.35 4215.62 1343.35V1342.59Z" fill="black"/>
<path d="M4606.84 1337.29V1075.39H4777.73V1121.65H4656.13V1177.77H4755.74V1224.03H4656.13V1291.28H4777.73V1337.54H4606.84V1337.29Z" fill="black"/>
<path d="M1243.05 99.9243C1237.94 82.3763 1229.76 66.7023 1218.69 52.732C1207.44 38.7617 1193.81 27.858 1177.46 20.021C1161.1 12.0137 1143.38 7.9248 1124.3 7.9248H285.232L118.27 843.417H383.194L429.705 607.115H1039.46C1072.85 607.115 1102.49 596.552 1128.39 575.596C1154.29 554.47 1170.3 527.552 1176.78 495.011L1244.75 154.783C1248.84 135.702 1248.16 117.472 1242.88 99.9243H1243.05ZM983.406 356.842L977.784 386.656C977.102 392.619 974.547 398.071 969.777 403.012C964.665 408.464 957.339 411.36 949.843 411.36H411.362L478.828 369.619L511.859 202.487H978.125C984.428 202.487 990.05 204.531 994.821 208.45C999.591 212.539 1002.83 217.479 1004.36 223.953L983.576 356.842H983.406Z" fill="white"/>
<path d="M3313.2 99.9243C3308.09 82.3763 3299.74 66.7023 3288.67 52.732C3277.6 38.7617 3263.8 27.858 3247.44 20.021C3231.09 12.0137 3213.37 7.9248 3194.29 7.9248H2355.22L2188.25 843.417H2453.18L2499.69 607.115H3109.44C3142.83 607.115 3172.48 596.552 3198.37 575.596C3224.1 554.47 3240.29 527.552 3246.59 495.011L3314.57 154.783C3318.66 135.702 3317.97 117.472 3312.86 99.9243H3313.2ZM3053.56 356.842L3047.94 386.656C3047.26 392.619 3044.7 398.071 3039.93 403.012C3034.82 408.464 3027.49 411.36 3020 411.36H2541.89L2584.98 202.487H3048.11C3054.41 202.487 3060.03 204.531 3064.81 208.45C3069.58 212.539 3072.81 217.479 3074.35 223.953L3053.56 356.842Z" fill="white"/>
<path d="M1490.62 530.448L1436.95 843.247H1186.34L1353.47 7.9248H1604.08L1539.68 327.708H1957.43L2021.83 7.9248H2272.44L2105.31 843.247H1854.7L1919.1 523.463" fill="white"/>
<path d="M4006.29 843.589H3427.04C3404.72 843.589 3384.27 838.989 3365.53 829.789C3346.79 820.589 3331.29 808.323 3319.02 792.819C3306.75 777.316 3297.73 759.427 3292.1 739.153C3286.48 718.879 3285.63 697.923 3289.72 676.457L3423.46 7.58594H3674.24L3560.61 614.442C3557.54 630.287 3569.81 645.109 3585.99 645.279L3885.84 648.857C3892.14 648.857 3897.94 646.642 3903.22 642.213C3908.33 637.783 3911.74 632.501 3913.44 626.027L4037.47 7.58594H4288.25L4143.78 731.316C4137.31 764.708 4121.29 791.797 4095.4 812.582C4069.5 833.367 4039.86 843.589 4006.46 843.589H4006.29Z" fill="white"/>
<path d="M4608.84 485.493L4510 556.96L4450.39 834.907H4199.61L4364.19 6.55957H4620.08L4557.73 298.584L5004.55 6.55957H5304.73L4807.32 346.457L5133.41 834.907H4840.88L4608.84 485.493Z" fill="white"/>
</svg>
